<?xml version="1.0" encoding="utf-8"?>
<!-- Generator: Adobe Illustrator 16.0.0, SVG Export Plug-In . SVG Version: 6.00 Build 0)  -->
<!DOCTYPE svg PUBLIC "-//W3C//DTD SVG 1.1//EN" "http://www.w3.org/Graphics/SVG/1.1/DTD/svg11.dtd">
<svg version="1.1" id="图层_1" xmlns="http://www.w3.org/2000/svg" xmlns:xlink="http://www.w3.org/1999/xlink" x="0px" y="0px" width="940.167px" height="200.587px" viewBox="0 0 940.167 200.587" enable-background="new 0 0 940.167 200.587" xml:space="preserve">
<path fill="#967161" d="M553.078,117.198c-0.508-0.304-1.095-0.627-1.651-0.417c-0.958,0.361,0.093,1.299,0.624,1.571
	c0.73,0.374,1.59,0.421,2.309,0.823c0.896,0.5,1.611,0.465,2.572,0.615c1.192,0.186,2.423,0.723,3.581,1.068
	c0.047-0.065,0.096-0.128,0.144-0.193c-0.538,0.726-2.419-1.785-2.784-1.906c-0.407-0.135-0.756-0.102-1.178-0.279
	c-1.019-0.427-2.173-0.5-3.153-1.014C553.397,117.391,553.241,117.295,553.078,117.198z"/>
<path fill="#967161" d="M540.82,113.68c-1.521-0.436-2.971-0.957-4.477-1.503c-2.705-0.981-5.435-1.259-8.216-1.955
	c-2.841-0.711-5.356-1.814-8.097-2.604c-2.616-0.754-4.678-1.238-7.407-1.005c-2.235,0.191-4.272-0.349-6.457-0.813
	c-1.515-0.322-3.035-0.622-4.558-0.915c-0.402,0.333-0.934,0.546-1.609,0.539c-3.018-0.031-5.848-0.604-8.689-1.593
	c-0.66-0.229-1.11-0.638-1.398-1.121c-3.677-0.696-7.336-1.438-10.944-2.333c-1.808-0.449-3.621-1.042-5.438-1.503
	c-1.458-0.37-2.751-0.878-4.312-0.875c-1.911,0.004-3.654,0.55-5.465,0.003c-1.774-0.536-3.472-0.914-5.337-0.968
	c-1.508-0.043-3.52-0.17-4.981,0.035c-4.146,0.582-7.233,0.746-9.755,0.664c-1.017,0.335-2.055,0.561-3.207,0.482
	c-1.913-0.13-3.646-1.136-5.369-1.892c-1.06-0.277-2.147-0.563-3.355-0.825c-3.474-0.755-6.965-1.384-10.454-2.057
	c-1.884-0.363-3.686-1.117-5.496-1.852c-2.092-0.3-4.177-0.634-6.21-1.243c-0.179-0.054-0.331-0.134-0.482-0.215
	c-0.465-0.024-0.931-0.058-1.399-0.094c-0.658-0.05-1.251-0.217-1.841-0.411c-0.448-0.001-0.897-0.002-1.337-0.002h-7.684
	c-3.536,0-6.862,1.364-10.36,1.652c-1.354,0.112-2.967,0.344-4.312,0.194c-1.561-0.174-3.044-0.757-4.644-0.85
	c-1.724-0.1-3.447,0.163-5.159,0.243c-1.544,0.072-3.066-0.252-4.616-0.414c-0.5-0.052-1.001-0.09-1.502-0.132
	c-2.484,0.108-4.843,0.593-7.361,0.169c-0.292-0.049-0.547-0.174-0.782-0.329c-0.8-0.037-1.601,0.002-2.402,0.008
	c-0.202,0.001-0.395-0.031-0.583-0.078c-2.131,0.063-4.261,0.158-6.385,0.304c-5.426,0.374-10.837,0.963-16.23,1.658
	c-1.601,0.207-3.214,0.391-4.795,0.695c-1.48,0.285-3.049,0.143-4.57,0.125c-0.257-0.003-0.515-0.003-0.772-0.005
	c-0.323,0.244-0.737,0.4-1.247,0.41c-2.754,0.055-5.457,0.369-8.155,0.592c-1.118,0.404-2.28,0.656-3.553,0.638
	c-0.447-0.006-0.819-0.123-1.133-0.302c-0.736,0.096-1.472,0.188-2.211,0.254c-0.142,0.08-0.282,0.162-0.428,0.233
	c-1.076,0.52-2.121,0.868-3.332,0.839c-0.211-0.005-0.415-0.039-0.614-0.088c-0.977,0.433-1.983,0.604-3.104,0.61
	c-0.417,0.144-0.83,0.307-1.243,0.462c-0.365,0.286-0.81,0.461-1.275,0.484c-0.671,0.269-1.343,0.545-2.026,0.837
	c-0.648,0.277-1.418,0.282-2.212,0.189c-0.327,0.175-0.712,0.286-1.171,0.286c-0.313,0-0.586-0.06-0.838-0.146
	c-0.319,0.12-0.673,0.199-1.079,0.199c-1.018,0-1.754-0.429-2.227-1.048c-2.204,0.033-4.405,0.012-6.618-0.192
	c-1.974-0.182-3.825,0.155-5.78,0.109c-0.493-0.012-1.243-0.146-1.946-0.194c-1.163,0.46-2.112,0.659-3.513,0.486
	c-0.627,0.041-1.264,0.036-1.932-0.025c-0.133,0.046-0.263,0.089-0.401,0.141c-1.103,0.416-2.301,0.457-3.462,0.619
	c-2.708,0.377-5.88,0.673-8.337,1.982c-1.854,0.988-1.535-0.402-1.754-1.583c-0.215-1.157-1.069-2.076-1.04-3.306
	c0.094-3.927,1.554-7.456,1.913-11.322c0.209-2.258-0.029-4.318-0.266-6.52c-0.233-2.161,0.29-4.648,0.585-6.792
	c0.182-1.319-0.195-2.468-0.222-3.75c-0.027-1.274,0.08-2.485-0.319-3.622c-0.377-1.074-0.999-2.018-1.498-3.02
	c-0.283-0.281-0.529-0.601-0.706-0.938c-0.247-0.472-0.427-0.965-0.752-1.393c-0.468-0.615-0.477-1.416-0.218-2.13
	c-0.438-1.223-0.824-2.299-0.824-2.299l-3.266-3.966c0,0,0.016-3.784-2.984-5.284c-1.604-0.802-3.396-0.686-5,0.25
	c-0.124,0.072-0.229,0.153-0.334,0.235c-0.126,0.376-0.287,0.743-0.497,1.108c-0.059,0.103-0.133,0.191-0.204,0.282
	c-0.075,0.276-0.16,0.548-0.249,0.818c0.012,0.954,0.053,1.913,0.024,2.825c0.163,0.52,0.318,0.857,0.318,0.857
	s0.112,0.185,0.287,0.474c1.278,0.366,2.336,1.288,2.636,2.683c0.124,0.576,0.082,1.155-0.1,1.675
	c0.031,1.152-2.434,3.825-2.929,4.561c-1.473,2.189-2.01,5.423-2.01,8.009c0,1.531-0.195,3.11,0.438,4.509
	c0.319,0.705,0.611,1.351,0.896,2.052c0.819,2.019,0.81,3.46,0.712,5.547c-0.042,0.896,0.298,1.777,0.418,2.658
	c0.153,1.116,0.354,2.192,0.581,3.244c0.432,1.996,0.474,4.055,0.666,6.109c0.33,3.526,0.159,7.066,0.099,10.6
	c-0.021,1.224,0.34,2.669-0.956,3.26c-1.053,0.48-2.361,0.633-3.481,0.928l-6.75,1.75l-0.917-6.75
	c-0.021-2.86-0.032-5.72-0.063-8.58c-0.016-1.433-0.504-3.227,0.011-4.605c0.32-0.854,1.025-1.402,1.596-2.076
	c0.665-0.785,1.046-1.695,1.45-2.631c0.861-1.999,1.731-3.679,1.84-5.878c0.101-2.049,0.096-4.259-0.329-6.211
	c-0.239-1.097-0.6-1.979-0.588-3.161c0.029-2.87-0.82-6.272-1.678-9.034c-0.746-2.404-2.708-5.785-4.564-7.476
	c-0.322-0.293-3.167-1.295-3.008-1.68c0.365-0.882,0.09-1.356,0.263-2.223c0.127-0.634,0.463-0.756,0.86-1.198
	c0.774-0.861,1.244-2.064,1.537-3.176c0.324-1.231,0.263-2.479,0.063-3.724c-0.264-1.641-0.841-1.539-2.272-1.807
	c-1.772-0.332-3.393-0.82-4.941,0.484c-0.563,0.474-0.932,0.993-1.193,1.541c-0.001,0.015,0.001,0.03,0,0.044
	c-0.062,0.605-0.228,1.102-0.506,1.543c-0.226,1.076-0.326,2.201-0.782,3.281c-0.904,2.141-3.171,4.361-5.183,5.464
	c-0.738,0.405-1.65,0.772-2.133,1.505c-0.749,1.138-1.148,2.25-2.03,3.322c-0.541,0.657-0.922,1.218-1.217,2.016
	c-0.634,1.722-1.169,3.508-1.771,5.247c-0.833,2.412-1.816,4.782-2.381,7.277c-0.451,1.99-0.816,4.572-0.245,6.559
	c0.266,0.926,0.194,1.439,0.916,2.097c0.74,0.676,0.663,1.569,1.107,2.439c0.364,0.712,0.947,1.44,1.505,2.063
	c0.79,0.881,1.646,1.15,1.954,2.353c0.344,1.344,1.483,2.278,1.586,3.703c0.044,0.604-0.118,1.084,0.078,1.692
	c0.237,0.734,0.888,1.116,1.073,1.872c0.168,0.685,0.319,1.373,0.516,2.055l-1.533,22.472l-3.01,1.928
	c-2.683,1.718-5.366,3.436-8.049,5.154c-0.529,0.338-1.079,0.802-1.656,1.052c-2.582,1.12-5.562,0.713-8.322,0.713
	c-2.606,0-4.997,0.414-7.515,0.94c-3.695,0.772-7.505,1.176-11.193,2.181c-1.745,0.477-3.467,0.982-5.187,1.51
	c-2.168,0.664-4.069,1.628-6.132,2.472c-2.109,0.863-4.896,0.809-7.146,1.102l-7.427,0.967c-2.766,0.36-5.532,0.72-8.298,1.08
	c-1.521,0.198-3.037,0.545-4.546,0.816c-1.135,0.203-2.289,0.523-3.435,0.643c-1.081,0.112-2.162,0.063-3.246,0.214
	c-1.136,0.158-2.309,0.635-3.466,0.709c-1.313,0.083-2.657,0.324-3.968,0.517c-0.88,0.129-1.877,0.146-2.7,0.518
	c-0.643,0.291-1.026,0.596-1.756,0.733c-0.933,0.176-1.977,0.229-2.883,0.518c-0.032,0.01-3.23,1.031-7.566,2.415
	c-3.832,2.112-7.768,3.576-12.251,3.91c-6.229,1.987-11.516,3.675-11.516,3.675c-1.567,0.486-3.186,1.187-4.803,1.449
	c-1.929,0.313-3.598,0.176-5.532,0.727c-2.912,0.831-5.104,2.616-7.976,3.507c-3.267,1.013-6.534,2.027-9.801,3.041
	c-0.66,0.205-1.319,0.409-1.979,0.614c-0.958,0.881-2.375,1.247-3.688,1.145c-1.63,0.506-3.259,1.012-4.889,1.518
	c-1.462,0.809-2.904,1.68-4.396,2.429c-1.827,0.918-4.125,1.036-5.743,2.324c-0.749,0.597-1.403,1.362-2.226,1.889
	c-1.522,0.974-3.17,1.836-4.84,2.689c-1.412,1.38-2.954,2.597-4.73,3.421c-1.939,2.48-4.652,3.784-7.673,4.454
	c-2.213,1.659-4.458,3.343-4.458,3.343c-0.099,0.254-0.222,0.494-0.357,0.728c1.091,0.604,2.205,1.146,3.185,1.331
	c3.312,0.217,6.644,0.001,9.903-0.674c1.835-0.38,3.548-1.059,5.408-1.145c2.215-0.104,4.368-0.603,6.303-1.713
	c1.087-0.623,2.18-0.997,3.234-1.591c1.728-0.974,3.224-2.737,4.732-4.022c0.236-0.201,2.546-1.711,2.574-1.547
	c0.291,1.743-0.103,1.876,1.074,3.315c1.581,1.935,3.382,4.291,6.502,3.619c2.55-0.549,7.304-1.795,10.84-5.518
	c0.26-0.273,1.209-0.304,2.177-0.27c0.408-0.257,0.848-0.459,1.327-0.594c0.523-0.087,0.94-0.147,1.346-0.177
	c0.653-0.047,1.23-0.004,2.099,0.149c0.371,0.065,0.728,0.19,1.077,0.338c0.477-0.201,0.916-0.466,1.346-0.8
	c0.408-0.316,0.765-0.844,1.235-1.053c1.111-0.494,2.048-0.009,2.754-1.281c1.913,1.035-2.987,5.098-0.028,5.702
	c3.008,0.615,4.935,0.743,7.708-0.893c2.011-1.186,4.635-4.346,6.936-4.418c1.439-0.046,2.87,0.513,4.364,0.398
	c1.861-0.143,3.099-0.862,4.633-1.774c1.276-0.759,2.743-1.027,4.179-1.48c3.024-0.954,6.293-1.086,8.956-2.954
	c0.678-0.477,1.246-1.317,2.092-1.041c0.608,0.198,1.597,1.748,2.147,2.217c2.279,1.94,5.116,3.121,8.137,2.66
	c2.208-0.338,4.232-1.46,5.942-2.863c0.775-0.636,1.762-1.347,2.242-2.223c0.938,1.301,0.946,4.728,2.647,5.406
	c0.893-0.236,1.788-0.472,2.684-0.708c0.884-0.799,1.434-2.034,2.589-2.371c0.336-0.098,0.704-0.133,1.08-0.153
	c0.78-0.554,1.692-0.884,2.629-0.818c0.585-0.188,1.262-0.258,2.036-0.167c3.068,0.359,5.941-0.521,8.931-1.086
	c1.36-0.258,2.725-0.482,4.091-0.703c0.478-0.425,0.748-0.968,0.476-1.771c-0.32-0.942-0.927-2.575,0.095-3.354
	c0.831-0.633,1.177,0.195,1.874,0.605c0.422,0.248,1.006,0.424,1.512,0.475c1.324,0.134,2.894-0.485,4.026-1.144
	c1.362-0.791,2.142-1.246,3.81-1.122c0.099,0.008,1.146,0.007,1.184,0.1c0.123,0.297,0.273,0.585,0.429,0.866
	c0.236,0.426,0.512,0.857,0.827,1.257c0.522,0.221,1.028,0.484,1.534,0.747c0.646-0.036,1.336,0.163,1.964,0.476
	c0.123-0.065,0.243-0.134,0.356-0.214c0.163-0.114,0.302-0.263,0.479-0.354c0.201-0.104,0.44-0.109,0.637-0.229
	c0.294-0.177,0.198-0.376,0.321-0.65c0.242-0.542,0.823-0.609,1.275-0.884c0.429-0.26,0.743-0.633,0.802-1.132
	c0.031-0.264,0.012-0.508,0.123-0.75c0.549-1.207,1.636-2.168,2.63-3.024c0.67-0.577,1.476-1.417,2.408-1.383
	c1.039,0.039,2.019-0.428,2.894-0.954c0.509-0.306,0.867-0.547,1.162-1.061c0.208-0.362,0.437-0.721,0.512-1.138
	c0.059-0.325,0.042-0.488,0.306-0.727c0.428-0.387,0.971-0.659,1.51-0.917c-0.042-0.431,0.149-0.875,0.689-1.019
	c0.36-0.097,0.705-0.228,1.044-0.376c0.009-0.209,0.083-0.423,0.265-0.617c1.215-1.298,2.634-2.005,4.202-2.781
	c0.675-0.334,1.29,0.123,1.461,0.671c0.256-0.103,0.512-0.205,0.779-0.295c0.963-0.326,1.833-0.814,2.717-1.309
	c0.408-0.229,0.888-0.569,1.348-0.671c0.463-0.103,1,0.091,1.475,0.092c0.413,0.001,0.768-0.066,1.157-0.173
	c0.414-0.113,0.753-0.314,1.14-0.492c0.282-0.13,0.663-0.335,0.969-0.383c0.274-0.044,0.312-0.026,0.198,0.226
	c-0.15,0.331-0.641,0.589-0.922,0.802c-0.479,0.362-0.98,0.689-1.473,1.03c-0.505,0.348-1.374,0.206-1.958,0.209
	c-0.799,0.003-1.575,0.22-2.359,0.347c-0.892,0.144-1.702,0.343-2.435,0.918c-0.694,0.545-1.388,1.103-2.049,1.695
	c-0.623,0.56-1.316,1.015-1.922,1.593c-0.729,0.698-1.529,1.351-2.344,1.932c-0.834,0.595-1.799,1.049-2.637,1.631
	c-0.876,0.608-1.782,1.152-2.616,1.785c-0.91,0.691-2.16,1.006-3.169,1.584c-1.094,0.627-2.218,1.421-3.115,2.312
	c-0.554,0.55-0.88,1.42-1.541,1.854c-0.329,0.216-0.69,0.335-1.025,0.528c-0.305,0.177-0.719,0.446-0.803,0.799
	c-0.07,0.294,0.055,1.313,0.425,1.347c3.042,0.279,6.087,0.526,9.135,0.727c1.329,0.087,2.688,0.08,4.009,0.233
	c0.614,0.07,0.945,0.384,1.512,0.615c0.634,0.259,1.315,0.392,1.974,0.57c1.102,0.3,2.269,0.497,3.433,0.563
	c1.514,0.085,3.188,0.229,4.71,0.065c0.988-0.105,1.844-0.323,2.834-0.314c0.533,0.005,1.062,0.011,1.59,0.01
	c2.221-0.637,4.431-1.309,6.76-1.386c0.118-0.004,0.228,0.016,0.329,0.054c0.485-0.296,0.957-0.619,1.448-0.899
	c0.902-0.515,1.935-0.751,2.771-1.383c1.833-1.386,3.585-2.892,5.494-4.188c11.083,1.166,15.25-5.75,18.667-12.667
	c6.026-0.84,11.921-2.502,17.531-4.852c2.661-1.115,5.257-2.381,7.784-3.773c1.161-0.64,2.397-1.67,3.644-2.101
	c1.266-0.438,2.744-0.425,4.054-0.787c0.128-0.036,0.256-0.073,0.383-0.113c1.513-0.479,2.731-1.207,4.083-2.027
	c2.302-1.396,3.649-3.752,5.036-5.973c0.766-1.227,1.428-2.186,2.519-3.138c1.061-0.926,1.912-1.871,3.283-2.249
	c1.044-0.288,1.879-0.797,2.328-1.81c0.258-0.583,0.272-1.131,0.633-1.641c0.515-0.729,1.421-1.355,2.067-1.976
	c1.025-0.986,2.046-1.975,3.07-2.962c0.957-0.922,1.377-0.995,2.552-1.319c1.461-0.403,2.137-1.803,3.056-2.866
	c1.292-1.495,2.601-1.342,4.486-1.598c1.879-0.255,3.75-0.569,5.609-0.948c4.945-1.008,9.789-2.47,14.505-4.26
	c2.461-0.934,4.831-2.17,7.3-3.061c1.085-0.391,2.297-0.202,3.462-0.255c1.368-0.063,2.733-0.218,4.057-0.582
	c2.458-0.674,4.947-1.234,7.464-1.59c2.719-0.384,5.458-0.719,8.225-0.786c1.974-0.048,4.038,0.415,5.971-0.157
	c0.831-0.245,1.734-0.288,2.657-0.238c0.491-0.058,0.986-0.06,1.513,0.06c0.191,0.043,0.367,0.104,0.544,0.164
	c0.423,0.063,0.844,0.13,1.254,0.193c0.03-0.012,0.054-0.029,0.084-0.041c3.693-1.335,6.498-0.255,9.388,1.407
	c1.887,0.051,6.05,0.037,12.927-0.628c0.964-0.547,1.915-1.023,3.009-1.217c2.177-0.933,4.556-1.042,6.998-0.717
	c6.138,0.815,12.109,2.801,18.219,3.838c2.829,0.48,7.605-0.091,10.018,1.605c0.815,0.573,0.783,1.566,1.433,2.221
	c1.342,1.353,3.456,0.199,5.052,0.162c2.057-0.049,4.083,0.354,6.126,0.515c1.652,0.13,3.476-0.166,5.09,0.184
	c1.188,0.258,2.093,1.137,3.282,1.363c4.484,0.852,5.734-3.902,9.615-4.123c1.597-0.091,3.581,0.614,5.141,0.899
	c2.034,0.372,4.405,0.513,6.35,1.212c1.631,0.587,2.936,1.841,4.711,2.035c1.701,0.185,3.415-0.188,5.129,0.084
	c4.529,0.721,9.078,2.152,13.482,3.411c0.596,0.17,1.184,0.363,1.777,0.539c2.711,0.03,5.363,0.448,7.202,2.521
	c0.433,0.133,0.851,0.226,1.231,0.24c4.495,0.166,8.978,0.646,13.435,1.305c1.784-0.164,3.335-0.417,4.994,0.018
	c0.532-0.187,1.115-0.219,1.677-0.035c0.921,0.302,1.738,0.863,2.396,1.578c0.405,0.078,0.812,0.154,1.217,0.234
	c5.654,1.117,11.269,2.433,16.854,3.862c0.35-0.101,0.71-0.14,1.072-0.156c0.131-0.005,0.258,0.012,0.384,0.029
	c0.151-0.251,0.301-0.502,0.454-0.755C544.697,114.908,542.749,114.232,540.82,113.68z M216.75,112.299l0.321-6.74l0.246-2.158
	l0.393,3.528l0.407,4.805L216.75,112.299z M245.75,102.433v-4.732l0.279,0.113l0.654,4.052L245.75,102.433z"/>
<path fill="#967161" d="M632.485,149.234c-0.005-0.042-0.012-0.083-0.021-0.123c-0.191-0.797-1.265-1.17-1.882-1.505
	c-1.11-0.602-2.231-1.185-3.36-1.752c-0.298-0.149-0.6-0.29-0.898-0.438c-2.137-0.834-4.171-1.899-6.311-2.744
	c-0.432-0.17-0.813-0.416-1.134-0.711c-1.635-0.721-3.274-1.431-4.919-2.129c-1.156-0.491-2.322-0.963-3.483-1.442
	c-0.484-0.16-0.952-0.363-1.412-0.585c-1.317-0.538-2.638-1.067-3.96-1.592c-0.099-0.032-0.192-0.067-0.278-0.109
	c-1.242-0.492-2.482-0.99-3.729-1.472c-2.333-0.9-4.674-1.783-7.021-2.649c-1.125-0.415-2.534-0.697-3.566-1.299
	c-0.727-0.424-1.291-0.813-2.116-1.122c-0.253-0.096-0.492-0.22-0.732-0.341c-0.498-0.155-0.996-0.318-1.493-0.505
	c-1.29-0.482-2.626-0.735-3.93-1.173c-1.515-0.509-2.869-1.605-4.488-1.809c-0.636-0.08-1.154-0.331-1.564-0.678
	c-0.869-0.188-1.738-0.384-2.607-0.602c-0.712-0.178-1.319-0.483-2.061-0.5c-0.645-0.015-1.119-0.092-1.753-0.292
	c-1.137-0.359-2.275-0.71-3.414-1.062c-0.03,0.07-0.062,0.14-0.096,0.208c3.929,1.531,7.847,3.088,11.758,4.665
	c2.384,0.961,4.767,1.926,7.149,2.889c2.222,0.898,4.739,1.601,6.817,2.795c0.533,0.308,0.991,0.73,1.505,1.068
	c0.797,0.523,1.68,0.804,2.568,1.131c1.269,0.467,2.486,1.071,3.775,1.501c1.255,0.419,2.446,0.842,3.656,1.36
	c0.636,0.272,1.319,0.39,1.944,0.692c0.529,0.256,0.978,0.58,1.577,0.646c1.179,0.129,2.043,0.304,3.184,0.749
	c2.042,0.797,3.875,1.778,5.79,2.822c0.769,0.419,1.543,0.721,2.373,0.996c1.824,0.605,3.744,1.174,5.627,1.711
	c0.954,0.273,1.746,0.735,2.624,1.225c0.92,0.513,1.879,0.71,2.876,1.019C630.151,148.286,632.69,150.965,632.485,149.234z"/>
<g>
	<path d="M776.382,37.615l3.125-0.781V20.896h-2.656v1.25l-2.188,0.781c0.103-2.5,0.156-4.895,0.156-7.188
		c0-2.29-0.054-4.27-0.156-5.938l2.188,1.094h6.875l1.094-1.406l2.344,1.719l-1.25,1.094c0,4.48,0.051,7.5,0.156,9.063l-2.031,0.938
		v-1.406h-2.656v5.938h1.875l1.719-1.719l2.5,2.656h-6.094v8.594l5.781-1.406l0.156,0.625c-3.75,1.25-7.969,2.813-12.656,4.688
		l-1.094,0.781l-1.563-2.344l2.5-0.625c0-6.353-0.054-10.625-0.156-12.813l3.281,1.563l-1.25,1.094V37.615z M776.851,11.833v8.125
		h7.188v-8.125H776.851z M803.413,30.74c0,4.48,0.051,8.281,0.156,11.406l-2.188,1.094v-2.969h-8.281v2.344l-2.188,1.25
		c0.103-3.335,0.156-8.333,0.156-15c-1.46,1.042-3.543,2.031-6.25,2.969l-0.156-0.469c4.27-2.188,8.02-5.259,11.25-9.219
		c-1.355-1.978-2.554-4.219-3.594-6.719c-1.563,3.022-3.23,5.522-5,7.5l-0.469-0.313c3.02-5,5.103-10.156,6.25-15.469l3.125,1.719
		l-1.25,0.938c-0.21,0.417-0.625,1.304-1.25,2.656h7.969l1.094-1.563l2.5,2.031l-1.406,1.094c-1.563,2.917-3.335,5.625-5.313,8.125
		c2.915,2.5,6.25,4.167,10,5v0.625c-1.355,0.105-2.293,0.679-2.813,1.719c-3.022-1.458-5.835-3.384-8.438-5.781
		c-1.25,1.25-2.969,2.761-5.156,4.531l1.406,0.938h7.656l0.938-1.25l2.344,1.875L803.413,30.74z M792.788,14.646
		c1.04,2.188,2.5,4.272,4.375,6.25c1.563-2.083,3.02-4.583,4.375-7.5h-8.125L792.788,14.646z M793.101,30.115v9.219h8.281v-9.219
		H793.101z"/>
	<path d="M835.819,34.802c0.728,0.938,2.004,1.98,3.828,3.125c1.821,1.147,5.078,1.797,9.766,1.953s9.738-0.027,15.156-0.547v0.625
		c-1.98,0.415-3.022,1.196-3.125,2.344c-4.897,0.103-8.96,0.024-12.188-0.234c-3.23-0.261-5.703-0.703-7.422-1.328
		s-3.203-1.614-4.453-2.969c-1.25-1.25-2.137-1.848-2.656-1.797c-0.522,0.054-1.382,0.703-2.578,1.953
		c-1.199,1.25-2.007,2.188-2.422,2.813l-2.188-2.188c1.665-1.145,3.75-2.344,6.25-3.594V21.677h-0.938
		c-1.355,0-2.605,0.156-3.75,0.469l-1.406-1.406h5.938l1.094-1.563l2.5,2.031l-1.406,1.094V34.802z M830.819,9.49l0.469-0.313
		c1.77,1.042,3.047,1.929,3.828,2.656c0.781,0.73,1.145,1.46,1.094,2.188c-0.054,0.73-0.288,1.304-0.703,1.719
		c-0.418,0.417-0.679,0.625-0.781,0.625c-0.418,0-0.781-0.571-1.094-1.719C833.214,13.188,832.276,11.47,830.819,9.49z
		 M847.226,19.021c-0.73,0.105-1.616,0.886-2.656,2.344h11.094l2.031-2.031l2.813,2.969h-9.219v4.375h7.344l2.188-2.031l2.813,2.969
		h-12.344v7.188h5.938c0-1.875-0.054-3.906-0.156-6.094l3.281,1.406l-1.094,1.094c0,2.085,0.051,3.906,0.156,5.469l-2.188,0.938
		V35.74h-13.281l-1.25,1.406l-2.031-1.875l1.094-0.781c0-1.77-0.054-3.696-0.156-5.781l3.281,1.406l-1.094,1.094v3.594h5.625v-7.188
		h-7.031c-1.355,0-2.605,0.156-3.75,0.469l-1.406-1.406h12.188v-4.375h-5.469c-1.772,1.667-3.281,2.917-4.531,3.75l-0.469-0.313
		c1.04-1.04,2.109-2.395,3.203-4.063c1.094-1.665,1.848-3.176,2.266-4.531L847.226,19.021z M839.101,11.521v-0.625
		c5.207-0.52,9.609-1.118,13.203-1.797c3.594-0.676,5.91-1.328,6.953-1.953l2.344,2.656c-1.46,0-4.272,0.21-8.438,0.625
		C848.995,10.845,844.308,11.208,839.101,11.521z M839.726,12.771l0.469-0.313c1.353,0.938,2.344,1.694,2.969,2.266
		c0.625,0.574,0.938,1.172,0.938,1.797c0,0.21-0.078,0.547-0.234,1.016s-0.496,0.859-1.016,1.172
		c-0.522,0.313-0.835,0.054-0.938-0.781c-0.21-0.833-0.522-1.77-0.938-2.813C840.558,14.075,840.141,13.293,839.726,12.771z
		 M847.538,12.146c2.5,1.46,3.853,2.656,4.063,3.594c0.207,0.938,0.051,1.667-0.469,2.188c-0.522,0.522-0.835,0.781-0.938,0.781
		c-0.418,0-0.679-0.415-0.781-1.25c-0.313-1.25-1.043-2.915-2.188-5L847.538,12.146z M858.163,11.052l2.969,2.344
		c-0.938,0.313-1.851,0.913-2.734,1.797c-0.887,0.886-2.319,2.319-4.297,4.297l-0.469-0.313c1.457-2.083,2.524-3.774,3.203-5.078
		C857.511,12.798,857.953,11.782,858.163,11.052z"/>
</g>
<g>
	<path d="M650.915,122c0,3.668,0.082,7.335,0.25,11l-4.25,1.75c0.164-5.168,0.25-9.832,0.25-14v-14.5h-19.5
		c-2.168,0-4.168,0.25-6,0.75l-2.25-2.25h27.75v-21h-14c-2.168,0-4.168,0.25-6,0.75l-2.25-2.25h40.75l3.5-3.5l5,5h-23.25v21h18.25
		l3.75-3.75l5.25,5.25h-27.25V122z M630.165,87.5c4.832,3.5,7.664,5.875,8.5,7.125c0.832,1.25,1.25,2.375,1.25,3.375
		c0,0.5-0.125,1.125-0.375,1.875s-0.836,1.461-1.75,2.125c-0.918,0.668-1.793-0.5-2.625-3.5c-0.836-2.832-2.75-6.332-5.75-10.5
		L630.165,87.5z M664.665,86.25l5.25,4c-1.336,0-3.168,1.5-5.5,4.5c-2.5,3-5.168,5.836-8,8.5l-0.75-0.5
		C659.997,96.918,662.997,91.418,664.665,86.25z"/>
	<path d="M703.915,85.25c0,12.836-0.293,21.586-0.875,26.25c-0.586,4.668-1.961,8.918-4.125,12.75c-2.168,3.835-6.75,7.832-13.75,12
		l-0.25-1c6-4.668,10-9.582,12-14.75c2-5.164,3.039-11.414,3.125-18.75c0.082-7.332-0.043-14.164-0.375-20.5l4.5,2.5h17.25l2.25-2.5
		l4.25,3.5l-2.5,1.75v37.25c-0.168,3,1.164,4.5,4,4.5h4.75c1.664,0.168,2.625-0.914,2.875-3.25c0.25-2.332,0.457-5.914,0.625-10.75
		h1.25c0.164,4.336,0.414,7.336,0.75,9c0.332,1.668,1.332,3.086,3,4.25c-1.5,2.5-3.668,3.832-6.5,4h-8.5c-4,0-6-2.082-6-6.25v-40
		H703.915z M706.165,98.25l0.5-0.75c4.832,2.668,7.914,4.793,9.25,6.375c1.332,1.586,2,2.875,2,3.875c0,0.836-0.336,1.75-1,2.75
		c-0.668,1-1.168,1.5-1.5,1.5c-0.668,0-1.418-1.082-2.25-3.25C711.829,105.586,709.497,102.086,706.165,98.25z"/>
	<path d="M772.665,93.25c0,19.5,0.082,32.25,0.25,38.25l-3.5,2v-5.25h-13v4.25l-3.5,2c0.164-7.832,0.25-15.625,0.25-23.375
		s-0.086-15.457-0.25-23.125l3.75,2.25h2.5c1.664-5.664,2.582-10,2.75-13l5.5,3c-1.668,0.836-3.918,4.168-6.75,10h8.25l2.5-2.5
		l3.75,3.75L772.665,93.25z M756.415,91.75v16h13v-16H756.415z M756.415,109.25v17.5h13v-17.5H756.415z M784.915,77.5l5.5,3.25
		c-1.336,0.836-3.418,4.25-6.25,10.25h13.5l2.75-2.75l3.75,3.75l-2.25,1.75c-0.336,19.5-0.793,30.543-1.375,33.125
		c-0.586,2.585-1.418,4.375-2.5,5.375c-1.086,1-2.793,1.914-5.125,2.75c-0.836-2.668-3.586-4.668-8.25-6v-1.25
		c4.164,0.835,7.164,1.25,9,1.25c1.832,0,2.957-1.414,3.375-4.25c0.414-2.832,0.789-13.582,1.125-32.25h-14.5
		c-3,4.836-6.168,8.918-9.5,12.25l-0.75-0.5c3.5-5.332,6.082-10.082,7.75-14.25C782.829,85.836,784.079,81.668,784.915,77.5z
		 M780.415,102c4,3,6.332,5.211,7,6.625c0.664,1.418,1,2.461,1,3.125c0,1.168-0.336,2.168-1,3c-0.668,0.836-1.168,1.25-1.5,1.25
		c-0.668,0-1.168-1.164-1.5-3.5c-0.668-3.332-2.168-6.582-4.5-9.75L780.415,102z"/>
	<path d="M821.165,82.5l6,2.75l-2.25,1.75v10h11.25V86.5c0-2.832-0.086-5.582-0.25-8.25l6,2.5l-2.25,2V97h14V86.25
		c0-2.664-0.086-5.5-0.25-8.5l6.25,2.75l-2.5,1.75V97h4.25l3.75-3.75l5.25,5.25h-13.25v19.25c0,0.668,0.082,2.086,0.25,4.25
		l-3.75,1.75v-5h-14V123l-3.75,1.5c0.164-3,0.25-4.832,0.25-5.5V98.5h-11.25v32.25h36l4-3.75l5.25,5.25h-45l-1.75,2.25l-4-3.25
		l2-1.75v-31h-1.5c-2.168,0-4.168,0.25-6,0.75l-2.25-2.25h9.75v-6.75C821.415,87.418,821.329,84.836,821.165,82.5z M839.665,98.5
		v18.75h14V98.5H839.665z"/>
	<path d="M887.165,103.5c0.164-4.164,0.25-8.289,0.25-12.375c0-4.082-0.086-8.125-0.25-12.125l4,2.25h29l2-2.5l4,3.5l-2.5,1.75
		c0,7.336,0.082,13.086,0.25,17.25l-3.5,1.5v-2.5h-9.75c3,4,6.332,6.836,10,8.5c3.664,1.668,8.25,2.836,13.75,3.5V113
		c-2.168,0.336-3.668,1.5-4.5,3.5c-4.336-1.5-8.25-3.457-11.75-5.875c-3.5-2.414-6.418-5.875-8.75-10.375h-4.75
		c-2.336,3.668-4.75,6.668-7.25,9l5.25,2.25l-2,1.5c-1.168,8-3.461,13.336-6.875,16c-3.418,2.664-8.293,4.832-14.625,6.5v-0.75
		c6-2.336,10.375-5.125,13.125-8.375c2.75-3.25,4.375-8.875,4.875-16.875c-4.836,4.336-11.418,7.5-19.75,9.5l-0.25-1
		c11-3.664,18.75-9.582,23.25-17.75h-9.75V102L887.165,103.5z M890.665,82.75v7h13v-7H890.665z M890.665,91.25v7.5h13v-7.5H890.665z
		 M906.915,82.75v7h13.5v-7H906.915z M906.915,91.25v7.5h13.5v-7.5H906.915z M912.665,135.25c0.164-4.168,0.25-8.5,0.25-13
		s-0.086-8.664-0.25-12.5l5.25,2.25l-1.75,1.75c0,9.336,0.082,15.914,0.25,19.75L912.665,135.25z"/>
</g>
<g>
	<path d="M817.146,157.116h5.313c2.188,0,3.906-0.051,5.156-0.156v2.656h-6.25c0.625,0.938,1.25,1.98,1.875,3.125
		c-0.938,0.313-1.824,0.679-2.656,1.094c-0.625-1.457-1.406-2.863-2.344-4.219h-2.5c-1.147,1.668-2.605,3.491-4.375,5.469
		c-0.938-0.625-1.929-1.145-2.969-1.563c1.875-1.563,3.384-3.176,4.531-4.844c1.145-1.665,2.134-3.54,2.969-5.625
		c1.563,0.835,2.813,1.355,3.75,1.563C818.499,155.554,817.666,156.389,817.146,157.116z M833.396,184.772
		c2.707,0.105,4.453-0.024,5.234-0.391c0.781-0.363,1.172-1.899,1.172-4.609h-11.25v5.156c0,0.938,0.051,2.707,0.156,5.313h-3.281
		c0.103-2.71,0.156-4.478,0.156-5.313v-3.75c-1.563,1.563-3.569,3.074-6.016,4.531c-2.449,1.457-5.234,2.813-8.359,4.063
		c-0.418-1.043-1.199-1.98-2.344-2.813c2.395-0.522,5.051-1.484,7.969-2.891c2.915-1.406,5.051-2.837,6.406-4.297h-10.938
		c0.415-3.125,0.676-6.145,0.781-9.063h12.5v-4.063h-6.406c-1.875,0-3.96,0.054-6.25,0.156v-2.813
		c2.29,0.105,4.063,0.156,5.313,0.156h22.344c-0.105,1.875-0.156,3.491-0.156,4.844c0,1.355,0.051,2.762,0.156,4.219h-12.031v4.063
		h14.531c-0.313,3.647-0.601,6.094-0.859,7.344c-0.262,1.25-1.069,2.109-2.422,2.578c-1.355,0.469-3.022,0.806-5,1.016
		C834.697,187.272,834.229,186.125,833.396,184.772z M825.584,177.272v-4.063h-9.531c-0.21,1.25-0.366,2.605-0.469,4.063H825.584z
		 M826.365,162.585c1.04-0.938,2.031-2.266,2.969-3.984s1.665-3.41,2.188-5.078c1.145,0.522,2.344,0.991,3.594,1.406
		c-0.522,0.418-1.043,1.094-1.563,2.031h6.094c0.728,0,2.29-0.051,4.688-0.156v2.813c-1.563-0.103-3.647-0.156-6.25-0.156
		c0.728,1.043,1.457,2.137,2.188,3.281c-1.147,0.313-2.085,0.679-2.813,1.094c-0.73-1.457-1.616-2.915-2.656-4.375h-2.5
		c-0.938,1.668-1.929,3.125-2.969,4.375C828.291,163.42,827.303,163.003,826.365,162.585z M837.459,170.71v-4.063h-8.906v4.063
		H837.459z"/>
	<path d="M879.996,182.116c2.5,0,4.531-0.103,6.094-0.313v3.906c-1.668-0.103-3.699-0.156-6.094-0.156H857.34
		c-2.71,0-4.949,0.054-6.719,0.156v-3.75c1.875,0.105,4.063,0.156,6.563,0.156H879.996z M875.621,160.085
		c2.29-0.103,4.375-0.207,6.25-0.313v3.906c-1.875-0.103-3.906-0.156-6.094-0.156h-14.531c-2.5,0-4.688,0.054-6.563,0.156v-3.75
		c1.875,0.105,4.009,0.156,6.406,0.156H875.621z"/>
	<path d="M905.347,157.585c-0.625,0.313-1.198,0.625-1.719,0.938c4.375,0,7.134-0.051,8.281-0.156v2.969
		c-0.729,0-2.136-0.051-4.219-0.156l2.656,1.25c-0.729,1.147-1.772,3.179-3.125,6.094c2.5,0,4.427-0.051,5.781-0.156v2.969
		c-1.354-0.103-2.71-0.156-4.063-0.156h-11.719c-1.875,0-3.438,0.054-4.688,0.156v-2.969c0.728,0.105,2.708,0.156,5.938,0.156
		c-0.729-1.77-1.667-3.594-2.813-5.469c0.833-0.415,1.719-0.884,2.656-1.406c1.04,1.46,2.134,3.281,3.281,5.469
		c-1.042,0.522-1.823,0.991-2.344,1.406h5c1.353-3.228,2.188-5.676,2.5-7.344h-3.75c-4.792,0-7.917,0.054-9.375,0.156v-2.969
		c1.25,0.105,4.063,0.156,8.438,0.156c-0.835-1.665-1.667-2.969-2.5-3.906c0.938-0.52,1.771-1.04,2.5-1.563
		C903.73,155.139,904.824,156.647,905.347,157.585z M910.034,182.116c0,2.397,0.052,4.895,0.156,7.5h-3.125v-3.125h-8.438v3.125
		h-3.125c0.103-2.188,0.156-4.478,0.156-6.875c0-2.5-0.054-5.103-0.156-7.813h14.688
		C910.086,177.326,910.034,179.722,910.034,182.116z M907.065,183.991v-6.563h-8.438v6.563H907.065z M927.3,174.694
		c0.884,1.616,1.274,3.257,1.172,4.922c-0.104,1.668-0.808,2.944-2.109,3.828c-1.304,0.887-3.257,1.484-5.859,1.797
		c-0.21-1.145-0.679-2.395-1.406-3.75c2.5,0,4.141-0.285,4.922-0.859c0.781-0.571,1.146-1.328,1.094-2.266
		c-0.054-0.938-0.601-2.238-1.641-3.906c-1.042-1.665-2.241-3.176-3.594-4.531c0.833-1.875,1.927-5.469,3.281-10.781h-5.625v30.781
		h-3.125c0.103-2.188,0.156-4.688,0.156-7.5v-19.063c0-2.29-0.104-4.582-0.313-6.875h13.125c-1.667,5.418-3.073,9.741-4.219,12.969
		C925.034,171.335,926.414,173.081,927.3,174.694z"/>
</g>
<g>
	<path d="M919.893,31.833c0,5.835,0.051,9.426,0.156,10.781l-2.188,1.094v-2.5h-14.375v1.719l-2.188,0.938
		c0.103-2.085,0.156-5.676,0.156-10.781c-3.335,1.563-6.772,2.813-10.313,3.75l-0.156-0.625c3.54-1.25,7.031-2.864,10.469-4.844
		c0-0.52-0.054-1.25-0.156-2.188l2.188,1.094c2.29-1.25,4.634-2.759,7.031-4.531h-13.594c-1.355,0-2.605,0.156-3.75,0.469
		l-1.406-1.406h15.313v-4.375h-4.688c-1.355,0-2.605,0.156-3.75,0.469l-1.406-1.406h9.844v-5.313l3.438,1.563l-1.406,1.094v2.656
		h2.031l1.875-1.875l2.656,2.813h-6.563v4.375h2.344c0.938-0.728,2.134-1.821,3.594-3.281c1.457-1.458,2.759-3.02,3.906-4.688
		l3.125,2.5c-1.043,0.105-2.188,0.703-3.438,1.797s-2.605,2.319-4.063,3.672h6.094l2.5-2.344l2.969,3.281h-12.5
		c-3.23,2.188-5.625,3.699-7.188,4.531h11.25l1.25-1.563l2.344,1.875L919.893,31.833z M914.736,12.615v2.813l-2.031,0.938v-3.75
		h-8.281v3.125l-2.031,1.094v-4.219h-5.156c-1.355,0-2.605,0.156-3.75,0.469l-1.406-1.406h10.313c0-1.665-0.054-3.125-0.156-4.375
		l3.438,1.406l-1.25,1.25v1.719h8.281c0-1.458-0.054-2.915-0.156-4.375l3.594,1.406l-1.406,1.094v1.875h5.313l2.344-2.344
		l2.969,3.281H914.736z M903.486,31.99v3.281h14.375v-4.063h-12.5L903.486,31.99z M903.486,36.208v4.063h14.375v-4.063H903.486z"/>
</g>
<g>
</g>
<g>
</g>
<g>
</g>
<g>
</g>
<g>
</g>
<g>
</g>
</svg>
