<?xml version="1.0" encoding="utf-8"?>
<!-- Generator: Adobe Illustrator 16.0.0, SVG Export Plug-In . SVG Version: 6.00 Build 0)  -->
<!DOCTYPE svg PUBLIC "-//W3C//DTD SVG 1.1//EN" "http://www.w3.org/Graphics/SVG/1.1/DTD/svg11.dtd">
<svg version="1.1" id="图层_1" xmlns="http://www.w3.org/2000/svg" xmlns:xlink="http://www.w3.org/1999/xlink" x="0px" y="0px" width="212.667px" height="54.667px" viewBox="0 0 212.667 54.667" enable-background="new 0 0 212.667 54.667" xml:space="preserve">
<g>
	<path d="M10.495,3.162c0.131,0.071,0.196,0.166,0.196,0.237s-0.065,0.166-0.174,0.237L9.971,3.993v14.041
		c0,1.806,0.022,3.588,0.087,4.657v0.095c0,0.309-0.109,0.428-0.545,0.713c-0.24,0.166-0.371,0.237-0.458,0.237
		c-0.109,0-0.131-0.119-0.131-0.333V18.13l-3.731,1.544c-0.982,0.38-1.593,0.855-1.92,1.212C3.229,20.933,3.163,20.98,3.12,20.98
		c-0.044,0-0.087-0.048-0.153-0.095l-0.938-1.141l6.895-2.139V10.36H4.8c-0.458,0-1.091,0.096-1.462,0.262L2.727,9.743
		C3.272,9.79,3.818,9.838,4.319,9.838h4.604V5.609c0-0.975-0.043-2.59-0.087-3.469L10.495,3.162z M21.034,17.227
		c0.087,2.804,0.349,3.303,0.917,3.517c0.065,0.023,0.109,0.071,0.109,0.143c0,0.047-0.021,0.095-0.043,0.166
		c-0.698,1.734-1.396,1.734-4.604,1.734c-3.382,0-3.775,0-3.775-2.186V4.92c0-1.069-0.022-1.877-0.065-2.827l1.593,0.95
		c0.153,0.096,0.218,0.167,0.218,0.262c0,0.071-0.043,0.166-0.153,0.237l-0.545,0.404v7.436c1.92-1.33,4.146-3.35,5.215-4.822
		l1.309,1.069c0.109,0.095,0.153,0.166,0.153,0.189c0,0.048-0.043,0.071-0.174,0.095c-0.524,0.048-1.2,0.333-1.811,0.832
		c-1.157,0.95-3.208,2.376-4.691,3.255v8.79c0,0.808,0,0.998,3.099,0.998c0.654,0,1.222-0.023,1.593-0.071
		c1.025-0.119,1.2-0.237,1.287-4.49H21.034z"/>
	<path d="M35.711,17.987c0.109,0.095,0.174,0.166,0.174,0.237s-0.087,0.119-0.24,0.119c-0.436,0.023-1.003,0.38-1.265,0.665
		c-1.92,2.138-3.797,3.896-5.368,4.989l-0.218-0.333c1.702-1.401,4.866-5.108,5.586-6.795L35.711,17.987z M48.345,6.108
		c0.109,0.118,0.152,0.214,0.152,0.261c0,0.095-0.109,0.143-0.305,0.143H30.955c-0.458,0-1.091,0.095-1.462,0.262l-0.611-0.879
		c0.546,0.047,1.091,0.095,1.593,0.095h15.361l1.069-1.568L48.345,6.108z M45.312,9.576c0.109,0.096,0.175,0.167,0.175,0.238
		s-0.066,0.143-0.218,0.237l-0.677,0.428v2.565c0,0.356,0.131,2.187,0.131,2.21c0,0.237-0.131,0.332-0.698,0.665
		c-0.174,0.095-0.283,0.143-0.349,0.143c-0.087,0-0.109-0.095-0.109-0.309v-0.761H39.53v7.342c0,0.974-0.24,1.378-1.506,2.186
		c-0.021,0.023-0.065,0.048-0.087,0.048c-0.044,0-0.109-0.071-0.153-0.214c-0.306-0.951-0.938-1.236-2.968-1.688l0.044-0.38
		c1.353,0.262,2.226,0.38,2.771,0.38c0.72,0,0.873-0.214,0.873-0.617v-7.057h-4.517c0,0.784,0,0.879-0.437,1.093
		c-0.24,0.119-0.393,0.19-0.501,0.19c-0.109,0-0.153-0.095-0.153-0.333c0-0.118,0-0.285,0.022-0.475
		c0.043-0.356,0.065-1.235,0.065-2.067v-2.803c0-0.57-0.022-1.64-0.065-2.376l1.287,1.093h8.99l0.698-1.021L45.312,9.576z
		 M43.566,14.471V9.838h-9.579v4.633H43.566z M36.649,2.164c1.222,0.476,3.12,1.283,3.12,2.471c0,0.594-0.393,1.26-0.742,1.26
		c-0.218,0-0.327-0.119-0.502-0.689c-0.24-0.784-0.917-1.734-2.007-2.804L36.649,2.164z M41.843,17.179
		c2.597,1.449,4.517,2.898,5.106,3.825c0.196,0.285,0.262,0.618,0.262,0.903c0,0.594-0.306,1.116-0.633,1.116
		c-0.153,0-0.306-0.166-0.437-0.522c-0.24-0.642-2.356-3.611-4.429-5.013L41.843,17.179z"/>
	<path d="M73.409,15.729c0.175,0.096,0.262,0.167,0.262,0.238s-0.065,0.143-0.196,0.237l-0.633,0.476v3.468
		c0,1.449,0.021,2.067,0.087,3.137v0.143c0,0.332-0.087,0.428-0.545,0.642c-0.218,0.118-0.349,0.166-0.437,0.166
		c-0.109,0-0.131-0.119-0.131-0.333V22.43H58.79l-0.524,0.855c-0.065,0.095-0.109,0.143-0.174,0.143
		c-0.044,0-0.087-0.024-0.175-0.096l-1.375-1.164l0.96-0.76v-3.231c0-0.927-0.043-2.494-0.087-3.326l1.614,0.832
		c0.153,0.071,0.218,0.118,0.218,0.189c0,0.048-0.065,0.119-0.174,0.19l-0.567,0.38v5.465h6.109v-9.503h-4.997l-0.458,0.854
		c-0.043,0.096-0.109,0.143-0.174,0.143s-0.109-0.047-0.174-0.095l-1.396-1.141l1.003-0.76V8.483c0-0.926-0.043-2.494-0.087-3.326
		l1.637,0.88c0.174,0.095,0.262,0.166,0.262,0.237s-0.065,0.143-0.218,0.261l-0.589,0.452v4.894h5.193V5.467
		c0-0.95-0.043-2.542-0.087-3.397l1.789,0.879c0.175,0.095,0.262,0.166,0.262,0.262c0,0.071-0.065,0.166-0.24,0.284l-0.698,0.523
		v7.863h5.542V8.508c0-0.95-0.043-2.542-0.087-3.397l1.658,0.736c0.153,0.071,0.24,0.143,0.24,0.214s-0.065,0.166-0.196,0.262
		l-0.589,0.451v2.993c0,1.568,0.021,2.067,0.087,3.136v0.143c0,0.333-0.087,0.428-0.545,0.642c-0.218,0.119-0.349,0.167-0.437,0.167
		c-0.109,0-0.131-0.119-0.131-0.333v-1.116h-5.542v9.503h6.175v-3.683c0-0.95-0.043-2.542-0.087-3.397L73.409,15.729z"/>
	<path d="M91.425,9.481C91.534,9.601,91.6,9.695,91.6,9.767s-0.087,0.095-0.284,0.095h-6.11c-0.021,1.331-0.087,2.566-0.174,4.158
		h2.4l0.546-0.927l1.222,0.974c0.131,0.096,0.175,0.167,0.175,0.214c0,0.071-0.065,0.119-0.655,0.57v5.773
		c0,0.761,0.022,1.401,0.087,2.471v0.19c0,0.332-0.065,0.403-0.524,0.617c-0.262,0.119-0.415,0.167-0.502,0.167
		c-0.109,0-0.131-0.071-0.131-0.214c0-0.381,0.044-2.233,0.044-2.661v-6.652h-2.706c-0.218,3.54-0.764,6.985-2.924,9.765
		l-0.262-0.214c1.593-2.851,2.444-5.132,2.444-17.011c0-1.33-0.022-2.542-0.043-3.492l1.505,0.974
		c0.109,0.071,0.175,0.119,0.175,0.19c0,0.095-0.022,0.095-0.655,0.57c0,1.615,0,2.874-0.022,4.039h2.662V5.229
		c0-1.401-0.022-2.328-0.065-3.136l1.593,1.021c0.131,0.096,0.175,0.167,0.175,0.237c0,0.096-0.065,0.143-0.655,0.499v5.513h0.655
		l0.829-1.022L91.425,9.481z M102.4,22.786c-1.113,0.023-1.658,0.285-1.898,0.688c-0.043,0.071-0.087,0.119-0.153,0.119
		c-0.174,0-2.356-1.711-3.818-3.849c-1.396,1.711-3.229,3.064-6.48,4.633l-0.175-0.285c2.902-1.758,4.801-3.303,6.132-5.203
		c-1.135-2.091-1.659-5.061-1.942-8.79h-1.091c-0.306,8.173-1.069,10.239-3.622,13.446l-0.24-0.285
		c2.182-3.255,2.88-6.153,2.88-16.321c0-0.927,0-1.854-0.022-2.779l1.418,1.235c2.487-0.689,4.866-1.545,6.721-2.399l0.982,1.259
		c0.087,0.119,0.153,0.214,0.153,0.262c0,0.047-0.044,0.071-0.131,0.071c-0.087,0-0.567-0.096-0.676-0.096
		c-0.284,0-0.633,0.048-1.135,0.167C97.251,5.11,95.309,5.49,93.105,5.87c-0.022,1.354-0.065,2.59-0.109,3.706h5.695l0.742-0.902
		l1.266,1.164c0.109,0.095,0.175,0.19,0.175,0.262s-0.087,0.118-0.284,0.143c-0.306,0.047-0.524,0.261-0.655,0.854
		c-0.785,3.303-1.549,5.893-2.771,7.77c1.353,1.829,2.902,2.874,5.237,3.635V22.786z M94.545,10.1
		c0.35,3.421,1.004,6.058,2.051,7.888c1.178-2.044,1.79-4.49,2.291-7.888H94.545z"/>
	<path d="M128.773,21.954c-0.96,0.096-1.505,0.404-1.854,0.927c-0.109,0.166-0.175,0.214-0.283,0.214
		c-0.088,0-0.175-0.023-0.284-0.071c-3.142-1.259-5.346-2.898-6.524-5.82h-0.589v6.533c0,0.404-0.044,0.476-0.502,0.713
		c-0.24,0.143-0.393,0.214-0.479,0.214c-0.088,0-0.131-0.071-0.131-0.19c0-0.023,0.087-1.259,0.087-1.496v-5.773h-0.175
		c-2.422,2.827-5.019,5.155-9.295,7.08l-0.088-0.333c3.906-2.399,6.241-4.442,8.008-6.747h-5.913c-0.437,0-0.872,0.118-1.178,0.309
		l-0.742-0.879c0.502,0.023,0.982,0.048,1.527,0.048h7.855c0-0.951-0.021-1.521-0.065-2.115l1.527,0.523
		c0.131,0.047,0.196,0.071,0.196,0.118c0,0.071-0.065,0.119-0.633,0.522v0.951h6.917l0.851-1.188l1.419,1.378
		c0.131,0.119,0.174,0.19,0.174,0.262c0,0.047-0.065,0.071-0.239,0.071h-8.096c1.527,2.945,4.386,4.182,8.51,4.49V21.954z
		 M127.857,5.514c0.109,0.119,0.175,0.214,0.175,0.262c0,0.071-0.088,0.095-0.306,0.095h-7.44v2.376h4.276l0.873-1.188l1.309,1.425
		c0.088,0.096,0.131,0.167,0.131,0.214c0,0.048-0.065,0.071-0.239,0.071h-6.35v2.305h4.232l0.895-1.212l1.244,1.378
		c0.109,0.119,0.175,0.214,0.175,0.262c0,0.071-0.088,0.095-0.284,0.095h-6.262v2.353h4.909l0.916-1.212l1.266,1.378
		c0.131,0.143,0.196,0.214,0.196,0.285c0,0.048-0.108,0.071-0.327,0.071h-13.507c0,0.143,0.044,0.855,0.044,0.879
		c0,0.237-0.109,0.333-0.654,0.642c-0.175,0.095-0.284,0.143-0.35,0.143c-0.108,0-0.152-0.095-0.152-0.333
		c0-0.095,0.021-0.189,0.021-0.332c0.065-1.141,0.065-2.542,0.065-3.706V7.034c-1.527,2.233-2.64,3.611-3.884,4.775l-0.152-0.189
		c1.898-2.424,4.407-6.748,5.738-9.789l1.222,0.927c0.175,0.143,0.262,0.238,0.262,0.31c0,0.095-0.131,0.143-0.393,0.237
		c-0.306,0.118-0.458,0.166-1.658,2.043h11.783l0.938-1.235L127.857,5.514z M119.26,8.246V5.87h-5.542v2.376H119.26z M119.26,11.073
		V8.769h-5.542v2.305H119.26z M119.26,13.948v-2.353h-5.542v2.353H119.26z M118.322,1.902c1.789,0.618,2.64,1.354,2.64,2.258
		c0,0.499-0.327,0.854-0.567,0.854s-0.393-0.047-0.502-0.355c-0.393-1.165-0.698-1.711-1.724-2.543L118.322,1.902z"/>
	<path d="M154.209,3.875c0.109,0.071,0.152,0.143,0.152,0.189c0,0.048-0.065,0.096-0.175,0.167l-0.829,0.499v14.207
		c0,1.806,0.044,2.945,0.109,4.015v0.166c0,0.333-0.087,0.428-0.545,0.642c-0.175,0.096-0.306,0.119-0.394,0.119
		c-0.131,0-0.174-0.095-0.174-0.285v-1.734h-14.401v1.259c0,0.285-0.065,0.428-0.437,0.595c-0.153,0.071-0.284,0.118-0.371,0.118
		c-0.175,0-0.24-0.166-0.24-0.57v-0.166c0.044-1.401,0.065-2.565,0.065-4.822V5.895c0-1.378-0.021-2.732-0.065-3.469l1.484,1.307
		h13.44l0.786-1.117L154.209,3.875z M152.354,21.337V4.255h-14.401v17.082H152.354z M151.328,9.078
		c0.088,0.095,0.131,0.166,0.131,0.214c0,0.047-0.065,0.071-0.174,0.071h-4.103v8.909c0,0.997-0.196,1.449-1.527,2.209
		c-0.065,0.048-0.131,0.071-0.175,0.071c-0.087,0-0.108-0.071-0.131-0.166c-0.131-0.761-0.393-1.331-2.422-2.02l0.087-0.333
		c1.331,0.31,2.095,0.476,2.554,0.476c0.589,0,0.654-0.237,0.654-0.761V9.363h-0.24c-1.745,3.302-3.884,6.129-7.025,8.647
		l-0.219-0.214c2.924-2.851,4.953-5.512,6.109-8.434h-3.993c-0.458,0-1.091,0.095-1.462,0.261l-0.61-0.879
		c0.545,0.048,1.091,0.095,1.593,0.095h5.848V8.127c0-1.401,0-2.471-0.044-3.35l1.527,0.784c0.131,0.071,0.175,0.119,0.175,0.166
		c0,0.024-0.021,0.071-0.109,0.119l-0.589,0.356V8.84h1.985l0.873-1.188L151.328,9.078z"/>
	<path d="M170.653,4.397c0.131,0.071,0.175,0.143,0.175,0.19c0,0.047-0.065,0.095-0.24,0.166c-0.677,0.261-0.742,0.332-0.938,0.76
		c-1.811,3.778-5.063,8.387-7.833,10.24l-0.175-0.309c3.447-3.279,6.044-7.959,7.31-12.117L170.653,4.397z M173.904,16.276
		c2.662,2.043,4.561,4.585,4.691,5.535c0.021,0.167,0.021,0.31,0.021,0.428c0,1.046-0.523,1.426-0.938,1.426
		c-0.284,0-0.415-0.333-0.524-1.188c-0.043-0.333-0.152-0.713-0.327-1.164l-7.768,0.854c-2.662,0.285-3.143,0.428-3.645,0.784
		c-0.087,0.071-0.131,0.095-0.174,0.095c-0.065,0-0.109-0.047-0.153-0.142l-0.851-1.711c1.2-0.285,1.745-0.618,2.466-1.687
		c2.007-2.994,3.644-6.344,4.647-9.076l1.658,0.903c0.131,0.071,0.196,0.118,0.196,0.189c0,0.048-0.087,0.119-0.262,0.19
		c-0.589,0.285-0.677,0.38-0.96,0.855c-2.008,3.469-4.059,6.51-5.892,8.695l10.539-0.404c-0.546-1.14-1.527-2.637-2.924-4.348
		L173.904,16.276z M182.283,13.995c-0.306-0.047-0.589-0.095-0.829-0.095c-0.654,0-1.047,0.214-1.396,0.642
		c-0.065,0.071-0.109,0.095-0.175,0.095c-0.043,0-0.108-0.023-0.152-0.071c-3.229-3.492-4.561-6.319-5.87-11.831l1.637,0.642
		c0.109,0.047,0.153,0.095,0.153,0.143c0,0.047-0.022,0.095-0.109,0.166l-0.611,0.499c0.764,4.134,3.884,8.576,7.354,9.479V13.995z"/>
	<path d="M204.424,8.151c0.065,0.071,0.109,0.143,0.109,0.189c0,0.048-0.065,0.071-0.175,0.071h-13.267
		c-0.458,0-1.091,0.096-1.462,0.262l-0.611-0.879c0.546,0.047,1.091,0.095,1.593,0.095h11.478l0.895-1.307L204.424,8.151z
		 M207.871,3.708c0.109,0.071,0.175,0.143,0.175,0.19s-0.065,0.095-0.175,0.166l-0.807,0.499v16.369c0,1.806-0.065,2.02-1.55,2.852
		c-0.065,0.047-0.131,0.047-0.175,0.047c-0.065,0-0.108-0.047-0.152-0.189c-0.24-0.855-0.546-1.212-3.011-1.734l0.021-0.333
		c1.418,0.19,2.313,0.285,2.88,0.285c0.917,0,0.938-0.262,0.938-0.855V4.16h-12.982c-0.459,0-1.092,0.095-1.462,0.261l-0.611-0.879
		c0.545,0.071,1.091,0.095,1.593,0.095h12.983l0.741-1.116L207.871,3.708z M201.521,12.095c0.065,0.071,0.109,0.119,0.109,0.167
		c0,0.047-0.044,0.095-0.109,0.143l-0.698,0.498v4.039c0,0.879,0,1.497,0.065,2.139c0,0.095,0.022,0.166,0.022,0.214
		c0,0.261-0.109,0.332-0.48,0.522c-0.218,0.095-0.349,0.166-0.437,0.166c-0.131,0-0.152-0.118-0.152-0.332v-1.283h-6.394v1.663
		c0,0.499-0.677,0.736-0.895,0.736c-0.131,0-0.175-0.095-0.175-0.309c0-0.238,0.088-2.328,0.088-2.78v-4.442
		c0-0.998-0.022-1.687-0.065-2.423L193.775,12h5.651l0.611-1.093L201.521,12.095z M199.842,17.845v-5.322h-6.394v5.322H199.842z"/>
	<path d="M10.495,31.665c0.131,0.071,0.196,0.166,0.196,0.237s-0.065,0.166-0.174,0.237l-0.546,0.356v14.041
		c0,1.806,0.022,3.588,0.087,4.657v0.095c0,0.309-0.109,0.428-0.545,0.713c-0.24,0.166-0.371,0.237-0.458,0.237
		c-0.109,0-0.131-0.119-0.131-0.333v-5.273l-3.731,1.544c-0.982,0.38-1.593,0.855-1.92,1.212c-0.043,0.047-0.109,0.095-0.152,0.095
		c-0.044,0-0.087-0.048-0.153-0.095l-0.938-1.141l6.895-2.139v-7.246H4.8c-0.458,0-1.091,0.096-1.462,0.262l-0.611-0.879
		c0.545,0.047,1.091,0.095,1.593,0.095h4.604v-4.229c0-0.975-0.043-2.59-0.087-3.469L10.495,31.665z M21.034,45.729
		c0.087,2.804,0.349,3.303,0.917,3.517c0.065,0.023,0.109,0.071,0.109,0.143c0,0.047-0.021,0.095-0.043,0.166
		c-0.698,1.734-1.396,1.734-4.604,1.734c-3.382,0-3.775,0-3.775-2.186V33.422c0-1.069-0.022-1.877-0.065-2.827l1.593,0.95
		c0.153,0.096,0.218,0.167,0.218,0.262c0,0.071-0.043,0.166-0.153,0.237l-0.545,0.404v7.436c1.92-1.33,4.146-3.35,5.215-4.822
		l1.309,1.069c0.109,0.095,0.153,0.166,0.153,0.189c0,0.048-0.043,0.071-0.174,0.095c-0.524,0.048-1.2,0.333-1.811,0.832
		c-1.157,0.95-3.208,2.376-4.691,3.255v8.79c0,0.808,0,0.998,3.099,0.998c0.654,0,1.222-0.023,1.593-0.071
		c1.025-0.119,1.2-0.237,1.287-4.49H21.034z"/>
	<path d="M32.505,46.49c0.109,0.095,0.174,0.166,0.174,0.237s-0.087,0.119-0.24,0.119c-0.437,0.023-1.004,0.38-1.266,0.665
		c-1.92,2.138-3.797,3.896-5.368,4.989l-0.218-0.333c1.702-1.401,4.866-5.108,5.586-6.795L32.505,46.49z M45.139,34.611
		c0.109,0.118,0.152,0.214,0.152,0.261c0,0.095-0.109,0.143-0.305,0.143H27.748c-0.458,0-1.091,0.095-1.462,0.262l-0.611-0.879
		c0.546,0.047,1.091,0.095,1.593,0.095h15.361l1.069-1.568L45.139,34.611z M42.105,38.079c0.109,0.096,0.175,0.167,0.175,0.238
		s-0.065,0.143-0.218,0.237l-0.677,0.428v2.565c0,0.356,0.131,2.187,0.131,2.21c0,0.237-0.131,0.332-0.698,0.665
		c-0.175,0.095-0.284,0.143-0.35,0.143c-0.087,0-0.109-0.095-0.109-0.309v-0.761h-4.037v7.342c0,0.974-0.24,1.378-1.506,2.186
		c-0.021,0.023-0.065,0.048-0.087,0.048c-0.044,0-0.109-0.071-0.153-0.214c-0.306-0.951-0.938-1.236-2.968-1.688l0.044-0.38
		c1.353,0.262,2.226,0.38,2.771,0.38c0.72,0,0.873-0.214,0.873-0.617v-7.057h-4.517c0,0.784,0,0.879-0.436,1.093
		c-0.24,0.119-0.393,0.19-0.502,0.19c-0.109,0-0.153-0.095-0.153-0.333c0-0.118,0-0.285,0.022-0.475
		c0.043-0.356,0.065-1.235,0.065-2.067v-2.803c0-0.57-0.022-1.64-0.065-2.376l1.287,1.093h8.99l0.698-1.021L42.105,38.079z
		 M40.36,42.973V38.34h-9.579v4.633H40.36z M33.443,30.667c1.222,0.476,3.12,1.283,3.12,2.471c0,0.594-0.393,1.26-0.742,1.26
		c-0.218,0-0.327-0.119-0.502-0.689c-0.24-0.784-0.917-1.734-2.007-2.804L33.443,30.667z M38.636,45.681
		c2.597,1.449,4.517,2.898,5.106,3.825c0.196,0.285,0.262,0.618,0.262,0.903c0,0.594-0.306,1.116-0.633,1.116
		c-0.153,0-0.306-0.166-0.437-0.522c-0.24-0.642-2.356-3.611-4.429-5.013L38.636,45.681z"/>
	<path d="M68.698,39.932c0.131,0.143,0.175,0.214,0.175,0.285c0,0.048-0.066,0.071-0.218,0.071h-9.056v7.246
		c0,1.806,0.022,3.041,0.044,4.039c0,0.403-0.022,0.499-0.545,0.808c-0.24,0.143-0.415,0.237-0.524,0.237
		c-0.131,0-0.174-0.118-0.174-0.428c0-0.118,0-0.261,0.021-0.428c0.087-1.378,0.109-2.186,0.109-4.276v-7.198h-7.375
		c-0.895,0-1.2,0.071-1.505,0.214l-0.698-0.808c0.567,0.047,1.091,0.071,1.724,0.071h7.855v-5.417c0-0.975-0.022-2.613-0.044-3.492
		l1.768,0.902c0.109,0.071,0.174,0.119,0.174,0.166c0,0.048-0.043,0.096-0.131,0.167l-0.698,0.594v7.08h6.677l1.003-1.378
		L68.698,39.932z"/>
	<path d="M88.46,32.092c0.153,0.095,0.218,0.166,0.218,0.214c0,0.071-0.065,0.143-0.196,0.237l-0.742,0.642v17.058
		c0,1.165-0.24,1.545-1.593,2.258c-0.087,0.047-0.174,0.071-0.218,0.071c-0.065,0-0.109-0.071-0.131-0.214
		c-0.175-0.998-0.545-1.331-2.728-2.02l0.043-0.356c1.31,0.237,2.139,0.356,2.662,0.356c0.829,0,0.938-0.285,0.938-0.832v-6.153
		h-8.313c-0.306,3.968-1.396,6.581-5.455,9.433l-0.174-0.31c4.146-3.968,4.713-5.963,4.713-13.613v-4.799
		c0-1.449-0.022-2.305-0.065-3.112l1.331,1.212h7.528l0.72-1.117L88.46,32.092z M86.714,42.831v-4.752h-8.139l-0.021,1.497
		c-0.022,1.307-0.044,2.376-0.109,3.255H86.714z M86.714,37.556v-4.87h-8.052l-0.087,4.87H86.714z"/>
	<path d="M115.772,51.194c-1.506-0.071-2.095,0.332-2.291,0.736c-0.044,0.071-0.087,0.118-0.152,0.118
		c-0.109,0-4.146-1.924-7.07-5.273c-2.27,2.851-5.477,4.728-9.688,6.082l-0.087-0.333c4.32-1.9,7.332-4.086,9.121-6.558
		c-1.746-2.328-2.946-5.512-3.644-9.906h-4.167c-0.458,0-1.091,0.095-1.462,0.261l-0.611-0.879c0.545,0.071,1.091,0.095,1.593,0.095
		h16.038l0.981-1.473l1.354,1.473c0.131,0.143,0.196,0.262,0.196,0.356c0,0.119-0.088,0.167-0.284,0.167h-5.302
		c-0.677,3.896-1.702,7.389-3.448,9.931c2.095,2.305,5.368,4.157,8.925,4.847V51.194z M102.462,36.06
		c0.851,4.181,1.942,6.865,3.688,9.099c1.724-2.756,2.488-5.868,2.902-9.099H102.462z M103.88,30.547
		c1.811,0.832,3.36,2.02,3.36,3.16c0,0.665-0.458,1.188-0.808,1.188s-0.458-0.166-0.654-1.068c-0.153-0.736-0.567-1.711-2.073-3.041
		L103.88,30.547z"/>
	<path d="M139.004,34.586c0.131,0.143,0.196,0.262,0.196,0.333c0,0.095-0.087,0.143-0.283,0.143h-6.197c0,1.021,0,1.853,0.044,2.328
		v0.071c0,0.38-0.829,0.617-0.873,0.617c-0.152,0-0.218-0.143-0.218-0.522c0-0.356,0.021-2.091,0.021-2.494h-5.019
		c0,0.38,0.044,2.209,0.044,2.613c0,0.499-0.72,0.736-0.895,0.736c-0.152,0-0.196-0.143-0.196-0.499
		c0-0.403,0.021-2.399,0.021-2.851h-4.167c-0.459,0-1.092,0.095-1.462,0.261l-0.611-0.831c0.545,0.048,1.091,0.095,1.593,0.095
		h4.647v-1.734c0-0.594-0.021-1.259-0.065-2.043l1.681,0.95c0.152,0.095,0.218,0.166,0.218,0.237s-0.065,0.143-0.196,0.214
		l-0.611,0.381v1.995h5.019v-1.615c0-0.594-0.021-1.259-0.065-2.043l1.615,0.879c0.152,0.071,0.239,0.143,0.239,0.237
		s-0.087,0.143-0.764,0.594v1.948h3.95l0.96-1.473L139.004,34.586z M137.673,45.729c0,2.946,0.153,3.611,0.786,3.944
		c0.065,0.023,0.131,0.071,0.131,0.166c0,0.048-0.022,0.119-0.065,0.19c-0.655,1.401-1.156,1.496-2.422,1.71
		c-1.113,0.166-3.317,0.262-5.63,0.262c-6.546,0-8.008-0.262-8.008-1.64c0-1.924,4.32-6.652,7.833-10.358l-6.306,0.166
		c-0.458,0.024-1.091,0.096-1.462,0.262l-0.611-0.879c1.223,0.118,1.266,0.118,1.594,0.095l6.895-0.166l0.764-0.855l1.156,1.141
		c0.109,0.118,0.175,0.214,0.175,0.285c0,0.095-0.087,0.166-0.327,0.237c-0.567,0.19-1.025,0.522-1.288,0.784
		c-3.971,3.991-5.607,5.773-6.851,7.769c-0.306,0.499-0.48,0.879-0.48,1.164c0,0.451,0.393,0.665,1.2,0.736
		c1.287,0.119,3.316,0.19,5.302,0.19c2.073,0,4.103-0.071,5.259-0.237c1.593-0.214,1.768-0.428,2.029-4.989L137.673,45.729z"/>
	<path d="M160.796,44.232c0.174,0.096,0.262,0.167,0.262,0.238s-0.065,0.143-0.196,0.237l-0.633,0.476v3.468
		c0,1.449,0.021,2.067,0.087,3.137v0.143c0,0.332-0.087,0.428-0.545,0.642c-0.219,0.118-0.35,0.166-0.437,0.166
		c-0.109,0-0.131-0.119-0.131-0.333v-1.473h-13.027l-0.523,0.855c-0.065,0.095-0.109,0.143-0.175,0.143
		c-0.043,0-0.087-0.024-0.174-0.096l-1.375-1.164l0.96-0.76v-3.231c0-0.927-0.044-2.494-0.087-3.326l1.614,0.832
		c0.153,0.071,0.219,0.118,0.219,0.189c0,0.048-0.065,0.119-0.175,0.19l-0.567,0.38v5.465h6.109v-9.503h-4.997l-0.458,0.854
		c-0.043,0.096-0.108,0.143-0.174,0.143c-0.066,0-0.109-0.047-0.175-0.095l-1.396-1.141l1.004-0.76v-2.923
		c0-0.926-0.044-2.494-0.088-3.326l1.637,0.88c0.175,0.095,0.262,0.166,0.262,0.237s-0.065,0.143-0.218,0.261l-0.59,0.452v4.894
		h5.193v-6.414c0-0.95-0.043-2.542-0.087-3.397l1.789,0.879c0.175,0.095,0.262,0.166,0.262,0.262c0,0.071-0.065,0.166-0.24,0.284
		l-0.698,0.523v7.863h5.543V37.01c0-0.95-0.044-2.542-0.088-3.397l1.658,0.736c0.153,0.071,0.24,0.143,0.24,0.214
		s-0.065,0.166-0.196,0.262l-0.589,0.451v2.993c0,1.568,0.021,2.067,0.087,3.136v0.143c0,0.333-0.087,0.428-0.545,0.642
		c-0.219,0.119-0.35,0.167-0.437,0.167c-0.109,0-0.131-0.119-0.131-0.333v-1.116h-5.543v9.503h6.176v-3.683
		c0-0.95-0.044-2.542-0.088-3.397L160.796,44.232z"/>
	<path d="M175.605,37.984c0.108,0.119,0.174,0.214,0.174,0.285s-0.087,0.095-0.283,0.095h-6.109
		c-0.022,1.331-0.088,2.566-0.175,4.158h2.4l0.545-0.927l1.223,0.974c0.131,0.096,0.174,0.167,0.174,0.214
		c0,0.071-0.065,0.119-0.654,0.57v5.773c0,0.761,0.021,1.401,0.087,2.471v0.19c0,0.332-0.065,0.403-0.523,0.617
		c-0.262,0.119-0.414,0.167-0.502,0.167c-0.109,0-0.131-0.071-0.131-0.214c0-0.381,0.044-2.233,0.044-2.661v-6.652h-2.706
		c-0.218,3.54-0.764,6.985-2.924,9.765l-0.262-0.214c1.593-2.851,2.443-5.132,2.443-17.011c0-1.33-0.021-2.542-0.043-3.492
		l1.506,0.974c0.108,0.071,0.174,0.119,0.174,0.19c0,0.095-0.021,0.095-0.654,0.57c0,1.615,0,2.874-0.021,4.039h2.662v-4.135
		c0-1.401-0.022-2.328-0.065-3.136l1.593,1.021c0.131,0.096,0.174,0.167,0.174,0.237c0,0.096-0.065,0.143-0.654,0.499v5.513h0.654
		l0.829-1.022L175.605,37.984z M186.58,51.289c-1.112,0.023-1.658,0.285-1.897,0.688c-0.044,0.071-0.088,0.119-0.153,0.119
		c-0.175,0-2.356-1.711-3.818-3.849c-1.396,1.711-3.229,3.064-6.48,4.633l-0.175-0.285c2.902-1.758,4.801-3.303,6.132-5.203
		c-1.135-2.091-1.658-5.061-1.942-8.79h-1.091c-0.306,8.173-1.069,10.239-3.622,13.446l-0.24-0.285
		c2.183-3.255,2.881-6.153,2.881-16.321c0-0.927,0-1.854-0.022-2.779l1.419,1.235c2.487-0.689,4.865-1.545,6.72-2.399l0.982,1.259
		c0.087,0.119,0.152,0.214,0.152,0.262c0,0.047-0.043,0.071-0.131,0.071c-0.087,0-0.567-0.096-0.676-0.096
		c-0.284,0-0.633,0.048-1.135,0.167c-2.052,0.451-3.993,0.831-6.197,1.211c-0.021,1.354-0.065,2.59-0.109,3.706h5.695l0.742-0.902
		l1.266,1.164c0.108,0.095,0.174,0.19,0.174,0.262s-0.087,0.118-0.283,0.143c-0.306,0.047-0.523,0.261-0.654,0.854
		c-0.786,3.303-1.55,5.893-2.771,7.77c1.353,1.829,2.902,2.874,5.236,3.635V51.289z M178.726,38.602
		c0.349,3.421,1.004,6.058,2.051,7.888c1.179-2.044,1.789-4.49,2.291-7.888H178.726z"/>
	<path d="M194.561,40.597c2.27,0.808,3.12,1.354,3.447,1.877c0.152,0.237,0.219,0.522,0.219,0.808c0,0.499-0.219,0.95-0.59,0.95
		c-0.24,0-0.393-0.143-0.61-0.688c-0.328-0.832-1.31-2.02-2.466-2.661v6.747c0,1.64,0.021,2.923,0.087,3.991v0.143
		c0,0.404-0.087,0.499-0.479,0.666c-0.197,0.095-0.35,0.143-0.459,0.143c-0.152,0-0.196-0.143-0.196-0.547v-0.214
		c0.044-1.401,0.065-2.97,0.065-4.229v-5.726c-1.287,1.781-2.684,3.326-4.146,4.68l-0.196-0.237
		c3.229-3.896,4.801-6.415,6.284-9.788h-3.928c-0.458,0-1.091,0.095-1.462,0.261l-0.611-0.879c0.546,0.048,1.092,0.096,1.593,0.096
		h4.321l0.764-1.141l1.243,1.116c0.109,0.096,0.175,0.19,0.175,0.238c0,0.071-0.087,0.142-0.24,0.189
		c-0.458,0.143-0.742,0.428-1.069,1.046c-0.545,1.068-1.135,2.066-1.745,2.993V40.597z M192.641,30.547
		c0.479,0.285,2.684,1.616,2.684,2.852c0,0.713-0.502,1.307-0.917,1.307c-0.283,0-0.349-0.119-0.437-1.021
		c-0.087-0.808-0.479-1.734-1.483-2.923L192.641,30.547z M209.66,49.982c0.131,0.143,0.196,0.237,0.196,0.332
		c0,0.096-0.109,0.143-0.306,0.143h-11.718c-0.458,0-1.112,0.096-1.462,0.238l-0.61-0.855c0.523,0.048,1.091,0.095,1.593,0.095
		h5.259v-10.69h-3.252c-0.436,0-1.068,0.095-1.396,0.237l-0.589-0.855c0.502,0.048,1.048,0.095,1.527,0.095h3.71v-5.132
		c0-0.926-0.044-2.446-0.088-3.278l1.702,0.832c0.175,0.095,0.262,0.143,0.262,0.214s-0.087,0.166-0.218,0.261l-0.59,0.476v6.628
		h2.968l0.982-1.378l1.112,1.378c0.131,0.167,0.196,0.285,0.196,0.381c0,0.095-0.108,0.143-0.305,0.143h-4.954v10.69h3.688
		l0.938-1.378L209.66,49.982z"/>
</g>
<g>
</g>
<g>
</g>
<g>
</g>
<g>
</g>
<g>
</g>
<g>
</g>
</svg>
