<?xml version="1.0" encoding="utf-8"?>
<!-- Generator: Adobe Illustrator 16.0.0, SVG Export Plug-In . SVG Version: 6.00 Build 0)  -->
<!DOCTYPE svg PUBLIC "-//W3C//DTD SVG 1.1//EN" "http://www.w3.org/Graphics/SVG/1.1/DTD/svg11.dtd">
<svg version="1.1" id="图层_1" xmlns="http://www.w3.org/2000/svg" xmlns:xlink="http://www.w3.org/1999/xlink" x="0px" y="0px" width="33.264px" height="33.512px" viewBox="0 0 33.264 33.512" enable-background="new 0 0 33.264 33.512" xml:space="preserve">
<path d="M30.241,19.582c0.144,0.108,0.216,0.216,0.216,0.324c0,0.072-0.072,0.18-0.252,0.252l-1.044,0.504
	c-0.216,4.823-0.432,7.559-0.792,9.179c-0.252,1.152-0.792,1.98-2.664,2.952c-0.144,0.072-0.252,0.108-0.36,0.108
	c-0.144,0-0.252-0.144-0.288-0.432c-0.18-1.008-0.612-1.692-4.319-2.664l0.108-0.576c2.268,0.576,3.636,0.864,4.463,0.864
	c0.9,0,1.224-0.324,1.44-1.008c0.396-1.26,0.792-5.327,0.864-9.071h-5.903c-0.72,6.911-4.067,11.23-12.202,13.499l-0.144-0.576
	c7.163-2.375,10.042-6.875,10.727-12.922h-4.14c-0.792,0-1.476,0.144-2.052,0.36l-0.899-1.26c0.972,0.108,1.547,0.108,2.16,0.108
	h5.003c0.144-1.476,0.216-3.852,0.18-5.723l2.736,1.368c0.18,0.108,0.288,0.18,0.288,0.288c0,0.072-0.108,0.18-0.252,0.252
	l-1.116,0.684c-0.072,1.008-0.108,2.087-0.216,3.131h5.363l0.972-1.332L30.241,19.582z M33.084,13.247
	c0.144,0.144,0.18,0.252,0.18,0.36s-0.072,0.108-0.648,0.108c-1.116,0-1.979,0.54-4.751,3.132l-0.36-0.288l2.592-3.852H15.482
	c-0.144,2.844-1.26,4.067-2.231,4.067c-0.36,0-0.792-0.18-0.792-0.684c0-0.216,0.072-0.468,0.324-0.756
	c1.368-1.584,1.728-2.376,2.016-5.328h0.432c0.144,0.648,0.216,1.296,0.252,1.908h14.434l1.116-1.152L33.084,13.247z M32.652,5.543
	c0.144,0.18,0.216,0.324,0.216,0.396c0,0.108-0.108,0.144-0.36,0.144h-5.867c0,1.44,0,2.916,0.072,3.708v0.144
	c0,0.468-0.936,0.828-1.296,0.828c-0.288,0-0.36-0.216-0.36-0.684c0-0.576,0.036-3.348,0.036-3.996h-4.751
	c0,1.44,0,2.771,0.072,3.563v0.144c0,0.468-0.936,0.828-1.296,0.828c-0.288,0-0.36-0.216-0.36-0.684c0-0.576,0.036-3.24,0.036-3.852
	h-2.16c-0.756,0-1.8,0.144-2.412,0.396l-1.008-1.332c0.9,0.072,1.8,0.144,2.627,0.144h2.952v-2.16c0-1.188-0.036-2.304-0.108-3.132
	l2.52,1.152c0.216,0.072,0.288,0.18,0.288,0.288s-0.108,0.216-1.152,0.9v2.952h4.751V3.168c0-1.26-0.072-2.376-0.108-3.132
	l2.52,1.26c0.216,0.108,0.324,0.216,0.324,0.288c0,0.108-0.108,0.216-0.324,0.36l-0.864,0.504v2.844h2.844l1.548-1.764L32.652,5.543
	z"/>
<path d="M13.608,21.588l-8.531,4.607c-1.368,0.72-2.412,1.584-2.664,2.052c-0.108,0.18-0.18,0.288-0.288,0.288
	s-0.216-0.108-0.36-0.288L0.47,26.484l5.363-2.232V12.014H3.098c-1.188,0-1.62,0.036-2.088,0.216l-1.008-1.08
	c0.684,0.072,1.152,0.108,2.376,0.108h3.456V5.787c0-1.944-0.036-3.6-0.108-4.967l2.591,1.368c0.288,0.144,0.396,0.252,0.396,0.36
	s-0.72,0.54-1.188,0.792v7.919h2.304l1.044-1.548l1.548,1.764c0.18,0.18,0.252,0.324,0.252,0.396c0,0.108-0.108,0.144-0.396,0.144
	H7.525v11.519l5.832-2.412L13.608,21.588z"/>
</svg>
